# xmcd CD database file
#
# Track frame offsets:
#	150
#	16061
#	36062
#	47922
#	63969
#	77544
#	104151
#	120742
#	127267
#	138201
#	154950
#	167686
#	186733
#	200454
#
# Disc length: 2850 seconds
#
# Revision: 1
# Processed by: cddbd v1.5.2PL0 Copyright (c) Steve Scherf et al.
# Submitted via: CDex 1.51
#
DISCID=c70b200e
DTITLE=Various Artist - Spring Romance
DYEAR=2003
DGENRE=Jazz
TTITLE0=Ella Fitzgerald - Just One Of Those Things
TTITLE1=Dinah Washington - I Could Write a Book
TTITLE2=Oscar Peterson - Unforgettable
TTITLE3=Billie Holiday - A Fine Romance
TTITLE4=Sarah Vaughan - Misty
TTITLE5=Ella Fitzgerald and Louis Armstrong - Cheek To Cheek
TTITLE6=Blossom Dearie - They Say It's Spring
TTITLE7=Patti Page - Taking A Chance on Love
TTITLE8=Carmen McRae - All The Things You Are
TTITLE9=Mel Torme - Blue Moon
TTITLE10=Anita O'Day - Just In Time
TTITLE11=Louis Armstrong - I Only Have Eyes for You
TTITLE12=Nina Simone - My Baby Just Cares For Me
TTITLE13=Etta James - At Last
EXTD=YEAR: 2003
EXTT0=
EXTT1=
EXTT2=
EXTT3=
EXTT4=
EXTT5=
EXTT6=
EXTT7=
EXTT8=
EXTT9=
EXTT10=
EXTT11=
EXTT12=
EXTT13=
PLAYORDER=
